<!-- Exported by Character Map UWP -->
<svg height="100%" viewBox="64 64 896 896" width="100%" xmlns="http://www.w3.org/2000/svg" xmlns:xlink="http://www.w3.org/1999/xlink">
  <path d="M960,834.5C960,851.167 956.583,867.083 949.75,882.25C942.917,897.417 933.75,910.75 922.25,922.25C910.75,933.75 897.417,942.917 882.25,949.75C867.083,956.583 851.167,960 834.5,960L189.5,960C172.833,960 156.917,956.583 141.75,949.75C126.583,942.917 113.25,933.75 101.75,922.25C90.25,910.75 81.0833,897.417 74.25,882.25C67.4167,867.083 64,851.167 64,834.5L64,512C64,503 65.6667,494.667 69,487C72.3333,479.333 76.9167,472.583 82.75,466.75C88.5833,460.917 95.3333,456.333 103,453C110.667,449.667 119,448 128,448L256,448L256,320L128,320C119,320 110.583,318.333 102.75,315C94.9167,311.667 88.1667,307.167 82.5,301.5C76.8333,295.833 72.3333,289.083 69,281.25C65.6667,273.417 64,265 64,256L64,128C64,119 65.6667,110.667 69,103C72.3333,95.3334 76.9167,88.5834 82.75,82.75C88.5833,76.9167 95.3333,72.3334 103,69C110.667,65.6667 119,64.0001 128,64L256,64C264.667,64.0001 272.917,65.6667 280.75,69C288.583,72.3334 295.417,76.9167 301.25,82.75C307.083,88.5834 311.667,95.4167 315,103.25C318.333,111.083 320,119.333 320,128L320,256L448,256L448,128C448,119 449.667,110.667 453,103C456.333,95.3334 460.917,88.5834 466.75,82.75C472.583,76.9167 479.333,72.3334 487,69C494.667,65.6667 503,64.0001 512,64L834.5,64C851.167,64.0001 867.083,67.4167 882.25,74.25C897.417,81.0834 910.75,90.25 922.25,101.75C933.75,113.25 942.917,126.583 949.75,141.75C956.583,156.917 960,172.833 960,189.5ZM896,192C896,183.333 894.333,175.083 891,167.25C887.667,159.417 883.083,152.583 877.25,146.75C871.417,140.917 864.583,136.333 856.75,133C848.917,129.667 840.667,128 832,128L704,128L704,256C704,264.667 702.417,272.917 699.25,280.75C696.083,288.583 691.333,295.5 685,301.5C672,313.833 657,320 640,320L512,320L512,448C512,456.667 510.417,464.917 507.25,472.75C504.083,480.583 499.333,487.5 493,493.5C480,505.833 465,512 448,512L320,512L320,640C320,648.667 318.417,656.917 315.25,664.75C312.083,672.583 307.333,679.5 301,685.5C288,697.833 273,704 256,704L128,704L128,832C128,841 129.667,849.417 133,857.25C136.333,865.083 140.833,871.833 146.5,877.5C152.167,883.167 158.917,887.667 166.75,891C174.583,894.333 183,896 192,896L832,896C841,896 849.333,894.333 857,891C864.667,887.667 871.417,883.083 877.25,877.25C883.083,871.417 887.667,864.667 891,857C894.333,849.333 896,841 896,832ZM128,128L128,256L256,256L256,128ZM640,128L512,128L512,256L640,256ZM448,448L448,320L320,320L320,448ZM256,512L128,512L128,640L256,640Z" fill="#000000" fill-opacity="1">
  </path>
</svg>